<svg width="172" height="40" viewBox="0 0 172 40" fill="none" xmlns="http://www.w3.org/2000/svg">
<g clip-path="url(#clip0)">
<path d="M1.00946 1.99301H2.74797L6.50538 12.4545C6.95403 13.7413 7.45876 15.0839 7.90741 16.4266H8.01957C8.46822 15.0839 8.91686 13.7972 9.36551 12.4545L13.0668 1.99301H14.8614V19.8392H13.6277V8.09091C13.6277 6.63637 13.6837 4.79021 13.7959 3.27972H13.6837L12.2817 7.25175L8.41213 17.8252H7.40268L3.5331 7.25175L2.13108 3.27972H2.01892C2.075 4.79021 2.18716 6.63637 2.18716 8.09091V19.7832H1.00946V1.99301Z" fill="white"/>
<path d="M19.0675 16.5385C19.0675 13.6853 21.6472 12.2867 27.4796 11.6713C27.4796 9.71329 26.9749 7.58741 24.3952 7.58741C22.6567 7.58741 21.1425 8.42657 20.2452 9.0979L19.6844 8.2028C20.5817 7.53147 22.4324 6.52448 24.5634 6.52448C27.6479 6.52448 28.6573 8.76224 28.6573 11.5035V19.7832H27.6479L27.5357 18.1049H27.4796C26.1337 19.1678 24.5634 20.1189 22.881 20.1189C20.806 20.1189 19.0675 19 19.0675 16.5385ZM27.4796 16.986V12.5664C22.0959 13.1818 20.3013 14.4126 20.3013 16.4825C20.3013 18.3287 21.5911 19.0559 23.0492 19.0559C24.5634 19.1119 25.8533 18.3846 27.4796 16.986Z" fill="white"/>
<path d="M33.312 16.2028V7.86715H31.2931V6.97205L33.3681 6.86016L33.5364 3.11191H34.5458V6.86016H38.3032V7.86715H34.5458V16.3147C34.5458 17.9371 34.9384 19.056 36.733 19.056C37.2377 19.056 37.9107 18.8881 38.3593 18.6644L38.6958 19.6154C37.9107 19.8951 37.1255 20.1189 36.5647 20.1189C34.0411 20.1189 33.312 18.5525 33.312 16.2028Z" fill="white"/>
<path d="M41.4438 0.370636H42.6215V8.87413C43.9674 7.53148 45.3133 6.52448 47.1079 6.52448C49.7998 6.52448 51.0336 8.14686 51.0336 11.5035V19.8392H49.8559V11.6154C49.8559 8.87413 49.0147 7.53148 46.8836 7.53148C45.3133 7.53148 44.2478 8.37064 42.6215 9.99301V19.7832H41.4438V0.370636Z" fill="white"/>
<path d="M55.0714 18.8881C55.0714 18.1049 55.6322 17.6573 56.2491 17.6573C56.866 17.6573 57.3707 18.1049 57.3707 18.8881C57.3707 19.6713 56.8099 20.1189 56.2491 20.1189C55.6883 20.1189 55.0714 19.6713 55.0714 18.8881Z" fill="white"/>
<path d="M77.0551 19.7832H62.5302V0.986023H69.8767C71.447 0.986023 72.7369 1.26574 73.7463 1.82518C74.6997 2.38462 75.4848 3.1119 76.0456 4.06295C76.6064 5.014 76.8869 6.02099 76.8869 7.19581C76.8869 8.59441 76.4382 9.88113 75.597 10.9441C74.7558 12.0629 73.6342 12.7902 72.3443 13.1259L77.0551 19.7832ZM63.5396 2.6084V12.3427H70.4936L63.5396 2.6084ZM63.5396 18.7762H75.1483L71.1666 13.2937H70.3254H63.5396V18.7762ZM64.2687 1.99302L71.6153 12.2867C72.849 12.007 73.8024 11.4476 74.6436 10.4965C75.4848 9.54546 75.8213 8.42658 75.8213 7.19581C75.8213 6.18882 75.597 5.29372 75.0923 4.5105C74.5875 3.67134 73.9146 3.05595 73.0173 2.66434C72.2321 2.27274 71.1666 2.04896 69.8767 2.04896H64.2687V1.99302Z" fill="white"/>
<path d="M80.8686 16.5385C80.8686 13.6853 83.4483 12.2867 89.2807 11.6713C89.2807 9.71329 88.776 7.58741 86.1963 7.58741C84.4578 7.58741 82.9436 8.42657 82.0463 9.0979L81.4855 8.2028C82.3828 7.53147 84.2334 6.52448 86.3645 6.52448C89.449 6.52448 90.4584 8.76224 90.4584 11.5035V19.7832H89.449L89.3368 18.1049H89.2807C87.9348 19.1678 86.3645 20.1189 84.6821 20.1189C82.551 20.1189 80.8686 19 80.8686 16.5385ZM89.2246 16.986V12.5664C83.8409 13.1818 82.0463 14.4126 82.0463 16.4825C82.0463 18.3287 83.3361 19.0559 84.7943 19.0559C86.2524 19.0559 87.5983 18.3846 89.2246 16.986Z" fill="white"/>
<path d="M95.0571 6.8042H96.0665L96.1787 8.81819H96.2348C97.5807 7.47553 98.9266 6.46854 100.721 6.46854C103.413 6.46854 104.647 8.09091 104.647 11.4476V19.7832H103.469V11.6154C103.469 8.87413 102.628 7.53147 100.497 7.53147C98.9266 7.53147 97.8611 8.37063 96.2348 9.99301V19.7832H95.0571V6.8042Z" fill="white"/>
<path d="M108.404 13.3497C108.404 9.15385 111.096 6.52448 114.181 6.52448C115.751 6.52448 116.816 7.13987 118.106 8.14686L118.05 5.74126V0.370636H119.228V19.8392H118.218L118.106 18.1608H118.05C116.985 19.2238 115.583 20.1748 113.844 20.1748C110.535 20.1189 108.404 17.7133 108.404 13.3497ZM118.05 16.9301V9.2098C116.648 7.97903 115.527 7.53147 114.237 7.53147C111.657 7.53147 109.638 10.049 109.638 13.2937C109.638 16.7063 111.152 19 113.9 19C115.414 19.056 116.704 18.3287 118.05 16.9301Z" fill="white"/>
<path d="M123.154 13.3496C123.154 8.98601 125.845 6.52448 128.986 6.52448C132.127 6.52448 134.818 8.98601 134.818 13.3496C134.818 17.6573 132.127 20.1189 128.986 20.1189C125.845 20.1189 123.154 17.6573 123.154 13.3496ZM133.585 13.3496C133.585 9.93706 131.622 7.58741 128.986 7.58741C126.35 7.58741 124.387 9.93706 124.387 13.3496C124.387 16.7622 126.35 19.0559 128.986 19.0559C131.622 19.0559 133.585 16.7622 133.585 13.3496Z" fill="white"/>
<path d="M138.744 6.8042H139.754L139.866 8.81819H139.922C141.099 7.47553 142.558 6.46854 144.016 6.46854C146.091 6.46854 147.156 7.53147 147.605 9.09791C149.119 7.47553 150.521 6.46854 152.035 6.46854C154.615 6.46854 155.961 8.09091 155.961 11.4476V19.7832H154.727V11.6154C154.727 8.87413 153.83 7.53147 151.811 7.53147C150.577 7.53147 149.343 8.37063 147.885 9.99301V19.7832H146.708V11.6154C146.708 8.87413 145.81 7.53147 143.791 7.53147C142.614 7.53147 141.324 8.37063 139.866 9.99301V19.7832H138.688V6.8042H138.744Z" fill="white"/>
<path d="M160.616 12.2867C160.616 7.53148 161.962 3.61539 164.205 0.0349731L164.934 0.482526C162.803 3.89511 161.681 8.03497 161.681 12.2867C161.681 16.5385 162.803 20.6783 164.934 24.0909L164.205 24.5385C162.018 20.958 160.616 17.042 160.616 12.2867Z" fill="white"/>
<path d="M166.672 24.0909C168.803 20.6783 169.925 16.5385 169.925 12.2867C169.925 8.03497 168.803 3.89511 166.672 0.482526L167.401 0.0349731C169.645 3.61539 170.991 7.53148 170.991 12.2867C170.991 17.042 169.645 20.958 167.401 24.5385L166.672 24.0909Z" fill="white"/>
<path d="M1.00946 33.6993C1.00946 33.1958 1.12162 32.6923 1.28986 32.1888C1.45811 31.7413 1.73851 31.2937 2.01892 30.9581C2.3554 30.6224 2.74797 30.3427 3.19661 30.1189C3.64526 29.8951 4.20607 29.8392 4.76688 29.8392C5.15944 29.8392 5.49593 29.8951 5.83241 29.9511C6.1689 30.007 6.4493 30.1189 6.78579 30.2308L6.33714 31.9091C6.1689 31.8532 5.94458 31.7972 5.72025 31.7413C5.49593 31.6294 5.27161 31.6294 4.93512 31.6294C4.31823 31.6294 3.86958 31.7972 3.5331 32.1888C3.25269 32.5804 3.08445 33.0839 3.08445 33.6993C3.08445 34.3706 3.25269 34.8741 3.5331 35.2098C3.8135 35.5455 4.31823 35.7692 4.9912 35.7692C5.21552 35.7692 5.49593 35.7692 5.77633 35.7133C6.05674 35.6574 6.33714 35.6014 6.56146 35.4895L6.84187 37.1678C6.61755 37.2797 6.28106 37.3357 5.94458 37.4476C5.60809 37.5595 5.15944 37.5594 4.76688 37.5594C4.09391 37.5594 3.5331 37.4476 3.02837 37.2797C2.52364 37.056 2.13108 36.8322 1.85067 36.4406C1.51419 36.1049 1.28986 35.7133 1.1777 35.2098C1.06554 34.7622 1.00946 34.2588 1.00946 33.6993Z" fill="#FFE400"/>
<path d="M14.8614 33.6993C14.8614 34.2588 14.8054 34.8182 14.6371 35.2657C14.4689 35.7133 14.2445 36.1609 13.9081 36.4965C13.5716 36.8322 13.2351 37.1119 12.7864 37.2797C12.3378 37.4476 11.8331 37.5594 11.3283 37.5594C10.7675 37.5594 10.3189 37.4476 9.87024 37.2797C9.42159 37.1119 9.02903 36.8322 8.74862 36.4965C8.41214 36.1609 8.18781 35.7692 8.01957 35.2657C7.85133 34.7622 7.73917 34.2588 7.73917 33.6993C7.73917 33.1399 7.85133 32.5804 8.01957 32.1329C8.18781 31.6853 8.46822 31.2378 8.74862 30.9021C9.08511 30.5664 9.47767 30.2867 9.87024 30.1189C10.3189 29.9511 10.7675 29.8392 11.3283 29.8392C11.8331 29.8392 12.3378 29.9511 12.7864 30.1189C13.2351 30.2867 13.6277 30.5664 13.9081 30.9021C14.2445 31.2378 14.4689 31.6294 14.6371 32.1329C14.7493 32.5804 14.8614 33.0839 14.8614 33.6993ZM12.7304 33.6993C12.7304 33.0839 12.6182 32.5804 12.3378 32.1888C12.0574 31.7972 11.7209 31.6294 11.2162 31.6294C10.7675 31.6294 10.375 31.7972 10.0946 32.1888C9.81416 32.5804 9.702 33.0839 9.702 33.6993C9.702 34.3147 9.81416 34.8741 10.0946 35.2098C10.375 35.5455 10.7115 35.7692 11.2162 35.7692C11.6648 35.7692 12.0574 35.6014 12.3378 35.2098C12.6182 34.8182 12.7304 34.3147 12.7304 33.6993Z" fill="#FFE400"/>
<path d="M20.4695 33.4755C20.4695 32.8042 20.3574 32.3567 20.1891 32.0769C20.0209 31.7972 19.7405 31.6853 19.2918 31.6853C19.1797 31.6853 19.0114 31.6853 18.8993 31.6853C18.7871 31.6853 18.6189 31.7413 18.5067 31.7413V37.3916H16.4317V30.2867C16.5999 30.2308 16.8243 30.1748 17.0486 30.1189C17.2729 30.0629 17.5533 30.007 17.7776 30.007C18.058 29.9511 18.3385 29.9511 18.6189 29.8951C18.8993 29.8951 19.1797 29.8392 19.4601 29.8392C19.9648 29.8392 20.4134 29.8951 20.7499 30.0629C21.0864 30.1748 21.3668 30.3427 21.5911 30.5664C21.8715 30.3427 22.208 30.1748 22.6006 30.0629C22.9932 29.9511 23.3296 29.8951 23.6661 29.8951C24.2269 29.8951 24.7317 29.9511 25.1242 30.1189C25.5168 30.2867 25.7972 30.5105 26.0215 30.7902C26.2459 31.0699 26.4141 31.4615 26.4702 31.8532C26.5263 32.2448 26.5823 32.6923 26.5823 33.1958V37.3357H24.5073V33.4755C24.5073 32.8042 24.3952 32.3567 24.2269 32.0769C24.0587 31.7972 23.7783 31.6853 23.3296 31.6853C23.2175 31.6853 23.0492 31.6853 22.881 31.7413C22.6567 31.7972 22.4884 31.8532 22.3763 31.965C22.4324 32.1888 22.4884 32.4126 22.4884 32.6364C22.4884 32.8602 22.5445 33.1399 22.5445 33.4196V37.3916H20.4695V33.4755Z" fill="#FFE400"/>
<path d="M32.5269 33.4755C32.5269 32.8042 32.4147 32.3567 32.2465 32.0769C32.0783 31.7972 31.7978 31.6853 31.3492 31.6853C31.237 31.6853 31.0688 31.6853 30.9566 31.6853C30.8445 31.6853 30.6762 31.7413 30.5641 31.7413V37.3916H28.4891V30.2867C28.6573 30.2308 28.8816 30.1748 29.106 30.1189C29.3303 30.0629 29.6107 30.007 29.835 30.007C30.1154 29.9511 30.3958 29.9511 30.6762 29.8951C30.9566 29.8951 31.237 29.8392 31.5174 29.8392C32.0222 29.8392 32.4708 29.8951 32.8073 30.0629C33.1438 30.1748 33.4242 30.3427 33.6485 30.5664C33.9289 30.3427 34.2654 30.1748 34.658 30.0629C35.0505 29.9511 35.387 29.8951 35.7235 29.8951C36.2843 29.8951 36.789 29.9511 37.1816 30.1189C37.5742 30.2867 37.8546 30.5105 38.0789 30.7902C38.3032 31.0699 38.4715 31.4615 38.5275 31.8532C38.5836 32.2448 38.6397 32.6923 38.6397 33.1958V37.3357H36.5647V33.4755C36.5647 32.8042 36.4526 32.3567 36.2843 32.0769C36.1161 31.7972 35.8357 31.6853 35.387 31.6853C35.2749 31.6853 35.1066 31.6853 34.9384 31.7413C34.7141 31.7972 34.5458 31.8532 34.4336 31.965C34.4897 32.1888 34.5458 32.4126 34.5458 32.6364C34.5458 32.8602 34.5458 33.1399 34.5458 33.4196V37.3916H32.4708V33.4755H32.5269Z" fill="#FFE400"/>
<path d="M46.7715 37.1119C46.435 37.2238 45.9863 37.3357 45.4255 37.3916C44.8647 37.5035 44.3039 37.5035 43.687 37.5035C43.0701 37.5035 42.5654 37.4476 42.1168 37.2797C41.6681 37.1119 41.3877 36.8881 41.1073 36.5525C40.883 36.2728 40.7147 35.8811 40.6026 35.4895C40.4904 35.0979 40.4343 34.5944 40.4343 34.0909V30.007H42.5093V33.8112C42.5093 34.4825 42.6215 34.986 42.7897 35.2658C42.958 35.5455 43.2945 35.7133 43.7992 35.7133C43.9674 35.7133 44.0796 35.7133 44.2478 35.7133C44.4161 35.7133 44.5843 35.6574 44.6965 35.6574V30.007H46.7715V37.1119Z" fill="#FFE400"/>
<path d="M48.7343 30.2867C49.0707 30.1748 49.5194 30.0629 50.0802 30.007C50.641 29.8951 51.2018 29.8951 51.8187 29.8951C52.4356 29.8951 52.9403 29.9511 53.389 30.1189C53.7815 30.2867 54.118 30.5105 54.3984 30.7902C54.6788 31.0699 54.791 31.4615 54.9032 31.8532C55.0153 32.2448 55.0714 32.6923 55.0714 33.1958V37.3357H52.9964V33.4755C52.9964 32.8042 52.8842 32.3567 52.716 32.0769C52.5478 31.7972 52.2113 31.6853 51.7065 31.6853C51.5383 31.6853 51.4261 31.6853 51.2579 31.6853C51.0897 31.6853 50.9214 31.7413 50.8092 31.7413V37.3916H48.7343V30.2867Z" fill="#FFE400"/>
<path d="M59.2214 27.9371C59.2214 28.3287 59.1092 28.6084 58.8288 28.8322C58.6045 29.056 58.268 29.1679 57.9315 29.1679C57.595 29.1679 57.3146 29.056 57.0342 28.8322C56.7538 28.6084 56.6417 28.3287 56.6417 27.9371C56.6417 27.5455 56.7538 27.2658 57.0342 27.042C57.2586 26.8182 57.595 26.7063 57.9315 26.7063C58.268 26.7063 58.5484 26.8182 58.8288 27.042C59.1092 27.2098 59.2214 27.5455 59.2214 27.9371ZM59.0531 37.3357H56.9782V30.007H59.0531V37.3357Z" fill="#FFE400"/>
<path d="M60.9038 28.2168L62.9788 27.8811V30.063H65.5025V31.7972H62.9788V34.3706C62.9788 34.8182 63.0349 35.1539 63.2032 35.4336C63.3714 35.7133 63.6518 35.8252 64.1565 35.8252C64.3808 35.8252 64.6052 35.8252 64.8295 35.7692C65.0538 35.7133 65.2781 35.6574 65.5025 35.6014L65.7829 37.2238C65.5585 37.3357 65.2781 37.3916 64.9417 37.5035C64.6613 37.5595 64.2687 37.6154 63.82 37.6154C63.2592 37.6154 62.8106 37.5595 62.418 37.3916C62.0255 37.2238 61.7451 37 61.5207 36.7762C61.2964 36.4965 61.1282 36.1609 61.0721 35.7692C60.9599 35.3776 60.9599 34.9301 60.9599 34.4825V28.2168H60.9038Z" fill="#FFE400"/>
<path d="M73.8585 30.007C73.4659 31.4056 73.0173 32.7483 72.5686 33.979C72.12 35.2098 71.6153 36.3846 71.0545 37.5594C70.8862 37.9511 70.6619 38.3427 70.4936 38.6224C70.3254 38.9021 70.1011 39.1818 69.8768 39.3497C69.6524 39.5175 69.372 39.6853 69.0916 39.7413C68.8112 39.8532 68.4747 39.8532 68.0822 39.8532C67.7457 39.8532 67.4653 39.7972 67.1849 39.7413C66.9045 39.6853 66.6801 39.6294 66.5119 39.5175L66.8484 37.8392C67.0727 37.8951 67.241 37.9511 67.4092 38.007C67.5774 38.0629 67.7457 38.0629 67.9139 38.0629C68.3065 38.0629 68.5869 37.9511 68.7551 37.7832C68.9795 37.5594 69.1477 37.3357 69.2599 36.9441C68.8112 35.993 68.3065 34.986 67.8578 33.8112C67.4092 32.6364 66.9605 31.3497 66.5119 29.8951H68.6991C68.8112 30.2308 68.9234 30.6224 69.0355 31.0699C69.1477 31.5175 69.3159 31.9091 69.4281 32.3567C69.5403 32.8042 69.7085 33.1958 69.8768 33.6434C70.045 34.035 70.1572 34.4266 70.2693 34.7622C70.3815 34.4266 70.4936 34.035 70.6619 33.6434C70.774 33.2518 70.9423 32.8042 71.0545 32.3567C71.1666 31.9091 71.2788 31.5175 71.447 31.0699C71.5592 30.6224 71.6713 30.2308 71.7835 29.8951H73.8585V30.007Z" fill="#FFE400"/>
<path d="M85.1868 33.6993C85.1868 34.2588 85.0747 34.8182 84.9625 35.2657C84.7943 35.7692 84.5699 36.1609 84.2335 36.4965C83.897 36.8322 83.5605 37.1119 83.1118 37.2797C82.6632 37.4476 82.1585 37.5594 81.5977 37.5594C81.0368 37.5594 80.5882 37.4476 80.1396 37.2797C79.6909 37.1119 79.2983 36.8322 79.0179 36.4965C78.6815 36.1609 78.4571 35.7692 78.2889 35.2657C78.1206 34.7622 78.0085 34.2588 78.0085 33.6993C78.0085 33.1399 78.1206 32.5804 78.2889 32.1329C78.4571 31.6853 78.7375 31.2378 79.0179 30.9021C79.3544 30.5664 79.747 30.2867 80.1396 30.1189C80.5882 29.9511 81.0368 29.8392 81.5977 29.8392C82.1024 29.8392 82.6071 29.9511 83.0558 30.1189C83.5044 30.2867 83.897 30.5664 84.1774 30.9021C84.5139 31.2378 84.7382 31.6294 84.9064 32.1329C85.0747 32.5804 85.1868 33.0839 85.1868 33.6993ZM83.0558 33.6993C83.0558 33.0839 82.9436 32.5804 82.6632 32.1888C82.3828 31.7972 82.0463 31.6294 81.5416 31.6294C81.0369 31.6294 80.7004 31.7972 80.42 32.1888C80.1396 32.5804 80.0274 33.0839 80.0274 33.6993C80.0274 34.3147 80.1396 34.8741 80.42 35.2098C80.7004 35.5455 81.0369 35.7692 81.5416 35.7692C82.0463 35.7692 82.3828 35.6014 82.6632 35.2098C82.8875 34.8182 83.0558 34.3147 83.0558 33.6993Z" fill="#FFE400"/>
<path d="M89.9537 26.5385C90.3463 26.5385 90.6827 26.5944 91.0192 26.6504C91.3557 26.7063 91.58 26.8182 91.7483 26.8741L91.3557 28.5525C91.1875 28.4965 90.9631 28.3846 90.7388 28.3846C90.5145 28.3287 90.2902 28.3287 90.1219 28.3287C89.8976 28.3287 89.6733 28.3846 89.505 28.4406C89.3368 28.4965 89.2246 28.6084 89.1125 28.7203C89.0003 28.8322 88.9442 29 88.8882 29.1679C88.8321 29.3357 88.8321 29.5035 88.8321 29.7273V30.063H91.4118V31.7972H88.8321V37.3916H86.7571V29.6154C86.7571 28.6644 87.0375 27.9371 87.5422 27.3776C88.103 26.8182 88.8882 26.5385 89.9537 26.5385Z" fill="#FFE400"/>
<path d="M95.674 33.7553C95.674 33.0839 95.7861 32.5245 95.9544 32.0769C96.1787 31.5734 96.403 31.1818 96.7395 30.8462C97.076 30.5105 97.4125 30.2867 97.8611 30.1189C98.3097 29.9511 98.7023 29.8951 99.151 29.8951C100.216 29.8951 101.002 30.2308 101.619 30.8462C102.235 31.4615 102.516 32.4126 102.516 33.6434C102.516 33.7553 102.516 33.9231 102.516 34.035C102.516 34.2028 102.516 34.3147 102.46 34.4266H97.7489C97.805 34.8741 97.9733 35.2098 98.3658 35.4336C98.7023 35.6574 99.207 35.8252 99.7679 35.8252C100.16 35.8252 100.497 35.7692 100.889 35.7133C101.282 35.6574 101.562 35.5455 101.787 35.4336L102.067 37.1119C101.955 37.1678 101.787 37.2238 101.619 37.2797C101.45 37.3357 101.226 37.3916 101.002 37.4476C100.777 37.5035 100.553 37.5035 100.273 37.5594C99.9922 37.6154 99.7679 37.6154 99.4875 37.6154C98.8145 37.6154 98.2537 37.5035 97.7489 37.3357C97.2442 37.1678 96.8516 36.8881 96.5152 36.5525C96.1787 36.2168 95.9544 35.8252 95.7861 35.3217C95.73 34.7622 95.674 34.2587 95.674 33.7553ZM100.553 32.972C100.553 32.8042 100.497 32.6364 100.441 32.4685C100.385 32.3007 100.329 32.1329 100.216 32.021C100.104 31.9091 99.9922 31.7972 99.8239 31.6853C99.6557 31.6294 99.4314 31.5734 99.207 31.5734C98.9827 31.5734 98.7584 31.6294 98.5902 31.6853C98.4219 31.7413 98.3098 31.8532 98.1976 32.021C98.0854 32.1329 97.9733 32.3007 97.9172 32.4685C97.8611 32.6364 97.805 32.8042 97.805 32.972H100.553Z" fill="#FFE400"/>
<path d="M104.142 30.2867C104.479 30.1748 104.927 30.0629 105.488 30.007C106.049 29.8951 106.61 29.8951 107.227 29.8951C107.843 29.8951 108.348 29.9511 108.797 30.1189C109.246 30.2867 109.526 30.5105 109.806 30.7902C110.031 31.0699 110.199 31.4615 110.311 31.8532C110.423 32.2448 110.479 32.6923 110.479 33.1958V37.3357H108.404V33.4755C108.404 32.8042 108.292 32.3567 108.124 32.0769C107.956 31.7972 107.619 31.6853 107.114 31.6853C106.946 31.6853 106.834 31.6853 106.666 31.6853C106.498 31.6853 106.329 31.7413 106.217 31.7413V37.3916H104.142V30.2867Z" fill="#FFE400"/>
<path d="M118.723 36.4406C118.723 37.6154 118.443 38.5105 117.826 39.1259C117.209 39.6853 116.256 40.021 115.022 40.021C114.573 40.021 114.125 39.965 113.676 39.9091C113.227 39.8532 112.835 39.7413 112.442 39.5734L112.779 37.8392C113.115 37.9511 113.452 38.0629 113.788 38.1189C114.125 38.1748 114.573 38.2308 115.022 38.2308C115.639 38.2308 116.031 38.1189 116.312 37.8392C116.536 37.5594 116.704 37.2238 116.704 36.8322V36.5525C116.48 36.6643 116.256 36.7203 116.031 36.7762C115.807 36.8322 115.527 36.8322 115.246 36.8322C114.237 36.8322 113.452 36.5525 112.891 35.9371C112.33 35.3217 112.106 34.4825 112.106 33.4196C112.106 32.8602 112.162 32.4126 112.33 31.965C112.498 31.5175 112.723 31.1259 113.059 30.8462C113.396 30.5105 113.788 30.2867 114.237 30.1189C114.685 29.9511 115.246 29.8392 115.807 29.8392C116.031 29.8392 116.312 29.8392 116.592 29.8951C116.873 29.8951 117.097 29.9511 117.377 30.007C117.658 30.0629 117.882 30.0629 118.106 30.1189C118.331 30.1748 118.555 30.2308 118.723 30.2867V36.4406ZM114.125 33.4755C114.125 34.6504 114.573 35.2098 115.527 35.2098C115.751 35.2098 115.919 35.2098 116.143 35.1539C116.312 35.0979 116.48 35.042 116.592 34.986V31.6853C116.48 31.6853 116.368 31.6294 116.256 31.6294C116.143 31.6294 115.975 31.6294 115.751 31.6294C115.19 31.6294 114.798 31.7972 114.517 32.1888C114.293 32.4126 114.125 32.9161 114.125 33.4755Z" fill="#FFE400"/>
<path d="M122.929 27.9371C122.929 28.3287 122.817 28.6084 122.537 28.8322C122.312 29.056 121.976 29.1679 121.639 29.1679C121.303 29.1679 121.023 29.056 120.742 28.8322C120.462 28.6084 120.462 28.2728 120.462 27.9371C120.462 27.5455 120.574 27.2658 120.854 27.042C121.079 26.8182 121.415 26.7063 121.752 26.7063C122.088 26.7063 122.368 26.8182 122.649 27.042C122.817 27.2098 122.929 27.5455 122.929 27.9371ZM122.761 37.3357H120.686V30.007H122.761V37.3357Z" fill="#FFE400"/>
<path d="M124.668 30.2867C125.004 30.1748 125.453 30.0629 126.014 30.007C126.574 29.8951 127.135 29.8951 127.752 29.8951C128.369 29.8951 128.874 29.9511 129.322 30.1189C129.771 30.2867 130.052 30.5105 130.332 30.7902C130.612 31.0699 130.724 31.4615 130.837 31.8532C130.949 32.2448 131.005 32.6923 131.005 33.1958V37.3357H128.93V33.4755C128.93 32.8042 128.818 32.3567 128.649 32.0769C128.481 31.7972 128.145 31.6853 127.64 31.6853C127.472 31.6853 127.36 31.6853 127.191 31.6853C127.023 31.6853 126.855 31.7413 126.743 31.7413V37.3916H124.668V30.2867Z" fill="#FFE400"/>
<path d="M132.575 33.7553C132.575 33.0839 132.687 32.5245 132.856 32.0769C133.08 31.5734 133.304 31.1818 133.641 30.8462C133.977 30.5105 134.314 30.2867 134.762 30.1189C135.211 29.9511 135.604 29.8951 136.052 29.8951C137.118 29.8951 137.903 30.2308 138.52 30.8462C139.137 31.4615 139.417 32.4126 139.417 33.6434C139.417 33.7553 139.417 33.9231 139.417 34.035C139.417 34.2028 139.417 34.3147 139.417 34.4266H134.706C134.762 34.8741 134.931 35.2098 135.323 35.4336C135.66 35.6574 136.164 35.8252 136.725 35.8252C137.118 35.8252 137.454 35.7692 137.847 35.7133C138.239 35.6574 138.52 35.5455 138.744 35.4336L139.024 37.1119C138.912 37.1678 138.744 37.2238 138.576 37.2797C138.408 37.3357 138.183 37.3916 137.959 37.4476C137.735 37.5035 137.51 37.5035 137.23 37.5594C136.949 37.5594 136.725 37.6154 136.445 37.6154C135.772 37.6154 135.211 37.5035 134.706 37.3357C134.201 37.1678 133.809 36.8881 133.472 36.5525C133.136 36.2168 132.912 35.8252 132.743 35.3217C132.575 34.8182 132.575 34.2587 132.575 33.7553ZM137.454 32.972C137.454 32.8042 137.398 32.6364 137.342 32.4685C137.286 32.3007 137.23 32.1329 137.118 32.021C137.006 31.9091 136.893 31.7972 136.725 31.6853C136.557 31.6294 136.333 31.5734 136.108 31.5734C135.884 31.5734 135.66 31.6294 135.491 31.6853C135.323 31.7413 135.211 31.8532 135.099 32.021C134.987 32.1329 134.874 32.3007 134.818 32.4685C134.762 32.6364 134.706 32.8042 134.706 32.972H137.454Z" fill="#FFE400"/>
<path d="M140.707 33.7553C140.707 33.0839 140.819 32.5245 140.987 32.0769C141.212 31.5734 141.436 31.1818 141.772 30.8462C142.109 30.5105 142.445 30.2867 142.894 30.1189C143.343 29.9511 143.735 29.8951 144.184 29.8951C145.249 29.8951 146.035 30.2308 146.651 30.8462C147.268 31.4615 147.549 32.4126 147.549 33.6434C147.549 33.7553 147.549 33.9231 147.549 34.035C147.549 34.2028 147.549 34.3147 147.493 34.4266H142.782C142.838 34.8741 143.006 35.2098 143.399 35.4336C143.735 35.6574 144.24 35.8252 144.801 35.8252C145.193 35.8252 145.53 35.7692 145.922 35.7133C146.315 35.6574 146.595 35.5455 146.82 35.4336L147.1 37.1119C146.988 37.1678 146.82 37.2238 146.651 37.2797C146.483 37.3357 146.259 37.3916 146.035 37.4476C145.81 37.5035 145.586 37.5035 145.306 37.5594C145.025 37.6154 144.801 37.6154 144.52 37.6154C143.847 37.6154 143.287 37.5035 142.782 37.3357C142.277 37.1678 141.885 36.8881 141.548 36.5525C141.212 36.2168 140.987 35.8252 140.819 35.3217C140.763 34.7622 140.707 34.2587 140.707 33.7553ZM145.586 32.972C145.586 32.8042 145.53 32.6364 145.474 32.4685C145.418 32.3007 145.362 32.1329 145.249 32.021C145.137 31.9091 145.025 31.7972 144.857 31.6853C144.689 31.6294 144.464 31.5734 144.24 31.5734C144.016 31.5734 143.791 31.6294 143.623 31.6853C143.455 31.7413 143.343 31.8532 143.231 32.021C143.118 32.1329 143.006 32.3007 142.95 32.4685C142.894 32.6364 142.838 32.8042 142.838 32.972H145.586Z" fill="#FFE400"/>
<path d="M153.605 31.8532C153.437 31.7972 153.213 31.7413 152.932 31.6853C152.708 31.6294 152.428 31.6294 152.147 31.6294C152.035 31.6294 151.867 31.6294 151.699 31.6853C151.53 31.6853 151.362 31.7413 151.306 31.7413V37.3357H149.231V30.3986C149.624 30.2867 150.016 30.1189 150.577 30.007C151.082 29.8951 151.643 29.8392 152.26 29.8392C152.372 29.8392 152.484 29.8392 152.652 29.8392C152.82 29.8392 152.989 29.8951 153.101 29.8951C153.269 29.8951 153.437 29.9511 153.549 29.9511C153.718 30.007 153.83 30.007 153.942 30.0629L153.605 31.8532Z" fill="#FFE400"/>
<path d="M157.195 35.8811C157.587 35.8811 157.868 35.8252 157.98 35.7692C158.148 35.7133 158.204 35.5455 158.204 35.3217C158.204 35.1539 158.092 34.986 157.924 34.8741C157.699 34.7623 157.419 34.5944 156.97 34.4266C156.634 34.3147 156.353 34.2028 156.073 34.035C155.793 33.8672 155.568 33.7553 155.4 33.5874C155.232 33.4196 155.064 33.1958 154.951 32.9161C154.839 32.6923 154.783 32.3567 154.783 32.021C154.783 31.3497 155.064 30.7902 155.568 30.3986C156.073 30.007 156.802 29.7832 157.699 29.7832C158.148 29.7832 158.597 29.8392 158.989 29.8951C159.382 29.9511 159.718 30.063 159.943 30.1748L159.606 31.7972C159.382 31.7413 159.101 31.6294 158.821 31.5734C158.541 31.5175 158.204 31.4616 157.868 31.4616C157.195 31.4616 156.914 31.6294 156.914 32.021C156.914 32.0769 156.914 32.1888 156.97 32.2448C156.97 32.3007 157.026 32.3567 157.139 32.4126C157.195 32.4685 157.363 32.5245 157.475 32.6364C157.643 32.6923 157.812 32.8042 158.036 32.8602C158.485 33.028 158.877 33.1958 159.157 33.3637C159.438 33.5315 159.718 33.6993 159.887 33.8671C160.055 34.035 160.167 34.2588 160.223 34.4825C160.279 34.7063 160.335 34.986 160.335 35.2657C160.335 35.993 160.055 36.5525 159.494 36.8881C158.933 37.2797 158.204 37.4476 157.195 37.4476C156.522 37.4476 156.017 37.3916 155.568 37.2797C155.12 37.1678 154.839 37.056 154.671 37L155.008 35.3217C155.344 35.4336 155.737 35.5455 156.073 35.6574C156.466 35.8252 156.858 35.8811 157.195 35.8811Z" fill="#FFE400"/>
</g>
<defs>
<clipPath id="clip0">
<rect width="172" height="40" fill="white"/>
</clipPath>
</defs>
</svg>
