<?xml version="1.0" standalone="no"?>
<!DOCTYPE svg PUBLIC "-//W3C//DTD SVG 20010904//EN"
 "http://www.w3.org/TR/2001/REC-SVG-20010904/DTD/svg10.dtd">
<svg version="1.0" xmlns="http://www.w3.org/2000/svg"
 width="520.000000pt" height="520.000000pt" viewBox="0 0 520.000000 520.000000"
 preserveAspectRatio="xMidYMid meet">
<metadata>
Created by potrace 1.14, written by Peter Selinger 2001-2017
</metadata>
<g transform="translate(0.000000,520.000000) scale(0.100000,-0.100000)"
fill="#000000" stroke="none">
<path d="M2408 5195 c-1 -2 -32 -6 -68 -9 -263 -23 -587 -113 -835 -232 -306
-147 -601 -367 -810 -605 -79 -89 -94 -108 -152 -186 -172 -232 -301 -485
-385 -753 -35 -116 -74 -278 -82 -343 -3 -27 -8 -52 -10 -55 -4 -7 -11 -73
-21 -212 -6 -71 -6 -255 -1 -307 2 -20 -1 -33 -8 -33 -8 0 -8 -2 0 -8 6 -4 14
-38 18 -77 8 -87 17 -154 35 -244 6 -29 8 -57 5 -62 -3 -5 0 -9 5 -9 6 0 11
-8 11 -17 0 -10 11 -56 25 -102 14 -46 22 -87 19 -92 -3 -5 -1 -9 4 -9 5 0 15
-19 22 -42 8 -24 25 -69 37 -101 13 -32 20 -63 17 -69 -4 -6 -3 -8 3 -5 13 8
26 -20 16 -36 -3 -7 -3 -9 2 -5 10 9 47 -63 40 -80 -3 -7 -1 -11 4 -8 11 7 23
-22 15 -35 -3 -5 0 -8 7 -7 7 2 14 -1 14 -7 1 -11 29 -60 63 -112 12 -19 19
-39 16 -45 -4 -7 -2 -8 4 -4 7 4 12 1 12 -8 0 -8 6 -16 12 -19 10 -3 9 -8 -2
-23 -14 -17 -14 -18 1 -6 14 10 18 10 23 -4 3 -9 4 -20 1 -25 -4 -5 1 -6 9 -3
11 4 16 0 16 -10 0 -9 5 -16 11 -16 5 0 8 -4 5 -9 -3 -5 1 -11 9 -15 8 -3 15
-11 15 -18 0 -7 9 -19 21 -26 12 -7 18 -16 15 -19 -3 -4 3 -13 15 -21 11 -8
18 -20 15 -29 -3 -8 -2 -12 3 -9 13 8 67 -63 63 -83 -2 -12 -1 -13 6 -3 11 16
66 -43 56 -60 -4 -6 -3 -8 3 -5 12 8 56 -31 48 -43 -3 -5 0 -12 6 -16 8 -4 9
-3 5 4 -4 7 -3 12 3 12 17 0 24 -22 10 -32 -11 -8 -11 -9 1 -5 21 7 54 -18 44
-34 -4 -8 -3 -10 4 -5 7 4 24 -4 39 -18 15 -15 31 -26 36 -26 4 0 5 -5 2 -10
-3 -6 0 -10 9 -10 8 0 16 -4 18 -8 2 -4 29 -28 61 -52 31 -25 57 -48 57 -53 0
-4 5 -5 10 -2 6 3 10 -1 10 -10 0 -9 4 -14 9 -10 5 3 16 -2 24 -10 9 -8 21
-15 27 -15 7 0 10 -7 7 -14 -4 -10 -1 -13 9 -9 7 3 14 0 14 -6 0 -6 3 -10 8
-10 22 4 34 -3 29 -15 -4 -10 -1 -13 8 -10 14 6 72 -28 87 -51 4 -5 8 -6 8 -2
0 4 9 3 20 -3 11 -6 18 -15 15 -20 -4 -6 1 -7 11 -3 13 5 15 3 9 -7 -5 -8 -4
-11 3 -7 14 10 43 -3 36 -15 -4 -6 -1 -8 7 -6 8 3 25 0 39 -7 14 -7 39 -19 55
-26 17 -8 36 -21 43 -29 9 -10 11 -10 7 -2 -6 11 -3 12 13 3 24 -13 77 -33 77
-30 0 1 11 -4 25 -11 14 -8 34 -15 45 -17 10 -2 22 -8 26 -14 3 -6 9 -10 13
-10 18 3 27 0 23 -6 -3 -5 9 -7 26 -7 18 1 44 -5 59 -12 15 -8 37 -14 49 -14
16 0 20 -4 14 -17 -5 -15 -4 -16 6 -6 14 14 43 18 36 6 -3 -5 5 -9 16 -10 20
-1 72 -8 122 -17 11 -2 19 -9 17 -15 -2 -8 3 -9 14 -3 19 11 64 4 64 -10 0 -6
7 -5 15 2 8 7 15 9 15 4 0 -5 25 -10 56 -11 35 0 60 -6 65 -15 6 -8 9 -9 9 -1
0 12 94 12 106 0 4 -3 15 -2 25 4 11 5 19 6 19 1 0 -8 53 -8 228 2 65 4 92 2
92 -6 0 -7 7 -3 16 8 15 18 15 18 10 0 -6 -17 -4 -17 10 -5 9 8 29 14 43 15
14 1 52 7 85 13 32 6 62 8 66 6 5 -3 11 -1 15 4 3 5 13 10 23 10 21 0 44 5 57
12 6 4 18 5 28 4 9 -2 17 0 17 5 0 4 10 7 23 6 12 -1 21 -7 19 -15 -1 -7 2
-10 8 -6 6 3 8 11 5 16 -8 11 44 32 62 25 8 -3 11 -1 8 4 -3 6 1 10 9 10 23 0
31 -4 28 -13 -1 -5 2 -6 8 -2 6 3 8 10 5 15 -3 5 19 16 47 26 29 9 62 22 73
27 26 15 37 15 53 4 9 -7 11 -6 6 7 -3 9 -1 16 5 16 7 0 30 9 51 19 24 12 40
15 40 8 0 -6 6 -4 13 4 28 34 46 42 62 29 13 -11 14 -10 10 2 -4 9 4 19 20 26
32 15 38 15 30 2 -3 -5 -1 -10 5 -10 7 0 9 7 6 15 -6 17 38 40 56 29 6 -4 8
-2 5 3 -8 12 116 94 144 96 10 1 16 5 13 9 -3 4 8 15 23 25 15 10 31 22 35 28
4 5 8 6 8 2 0 -5 7 -2 15 5 43 39 64 50 49 26 -4 -7 -3 -8 5 -4 6 4 9 11 7 15
-3 4 6 18 19 29 14 12 25 19 25 14 0 -4 5 1 11 11 6 9 15 15 20 11 5 -3 8 -2
7 3 -2 5 15 25 37 43 22 19 48 43 57 54 11 11 24 16 34 12 15 -6 15 -4 3 11
-12 15 -12 16 3 10 10 -3 17 -3 15 1 -4 14 52 74 63 67 6 -4 9 -2 8 3 -5 15
42 73 53 67 5 -4 8 -3 7 2 -4 14 34 63 45 56 6 -3 7 -1 3 5 -3 6 2 15 11 21
10 5 16 11 13 13 -9 6 34 47 43 41 6 -3 7 -1 3 6 -8 13 28 64 38 53 4 -3 4 2
0 13 -6 14 -4 17 8 13 10 -4 15 -1 14 10 0 9 5 16 12 14 8 -1 11 2 7 8 -7 11
12 45 40 73 8 9 17 20 18 24 1 4 9 7 17 5 12 -2 12 -1 2 6 -11 7 -8 18 13 53
14 24 30 56 36 72 6 15 15 27 20 27 5 0 9 4 9 9 0 5 18 47 40 94 22 46 40 90
40 96 0 7 4 9 10 6 6 -3 7 1 4 9 -3 9 -1 16 6 16 6 0 9 4 6 9 -9 14 5 42 17
34 6 -3 7 -1 3 5 -9 15 14 93 25 86 5 -3 6 1 3 9 -3 8 2 22 11 31 9 9 12 16 7
16 -10 0 6 69 18 80 3 3 7 21 8 40 2 19 8 42 12 50 5 9 11 36 15 60 8 51 13
75 15 75 3 0 9 39 16 100 3 33 8 76 11 95 12 97 16 318 9 430 -6 76 -15 171
-20 196 -2 12 -7 45 -11 75 -22 176 -126 492 -235 710 -217 437 -542 788 -982
1061 -57 35 -269 141 -338 168 -143 57 -365 124 -485 145 -16 2 -39 7 -50 9
-11 2 -47 7 -80 11 -32 4 -68 9 -80 12 -23 5 -461 13 -467 8z"/>
<path d="M1007 599 c7 -7 15 -10 18 -7 3 3 -2 9 -12 12 -14 6 -15 5 -6 -5z"/>
<path d="M1810 181 c0 -6 4 -13 10 -16 6 -3 7 1 4 9 -7 18 -14 21 -14 7z"/>
<path d="M1990 126 c0 -2 7 -7 16 -10 8 -3 12 -2 9 4 -6 10 -25 14 -25 6z"/>
<path d="M2733 65 c0 -8 4 -12 9 -9 5 3 6 10 3 15 -9 13 -12 11 -12 -6z"/>
</g>
</svg>
